<?xml version="1.0" encoding="UTF-8" standalone="no"?>
<!-- Created with Inkscape (http://www.inkscape.org/) -->

<svg
   xmlns:dc="http://purl.org/dc/elements/1.1/"
   xmlns:cc="http://creativecommons.org/ns#"
   xmlns:rdf="http://www.w3.org/1999/02/22-rdf-syntax-ns#"
   xmlns:svg="http://www.w3.org/2000/svg"
   xmlns="http://www.w3.org/2000/svg"
   xmlns:sodipodi="http://sodipodi.sourceforge.net/DTD/sodipodi-0.dtd"
   xmlns:inkscape="http://www.inkscape.org/namespaces/inkscape"
   id="svg2"
   version="1.1"
   inkscape:version="0.91 r13725"
   width="500"
   height="500"
   viewBox="0 0 500 500"
   sodipodi:docname="Proyeccion.svg">
  <metadata
     id="metadata8">
    <rdf:RDF>
      <cc:Work
         rdf:about="">
        <dc:format>image/svg+xml</dc:format>
        <dc:type
           rdf:resource="http://purl.org/dc/dcmitype/StillImage" />
        <dc:title />
      </cc:Work>
    </rdf:RDF>
  </metadata>
  <defs
     id="defs6" />
  <sodipodi:namedview
     pagecolor="#ffffff"
     bordercolor="#666666"
     borderopacity="1"
     objecttolerance="10"
     gridtolerance="10"
     guidetolerance="10"
     inkscape:pageopacity="0"
     inkscape:pageshadow="2"
     inkscape:window-width="1364"
     inkscape:window-height="714"
     id="namedview4"
     showgrid="false"
     inkscape:zoom="0.472"
     inkscape:cx="291.31356"
     inkscape:cy="262.71186"
     inkscape:window-x="0"
     inkscape:window-y="24"
     inkscape:window-maximized="1"
     inkscape:current-layer="svg2" />
  <path
     style="fill:#000000"
     d="M 242.9215,439.46336 C 235.7842,437.17533 215.82854,428.29302 206.28713,423.15731 160.05208,398.27111 121.5277,352.40933 103.90531,301.27574 95.030534,275.52444 79.723328,196.87778 81.691692,187.14476 c 0.888019,-4.39099 2.817302,-5.36506 11.961316,-6.0391 12.667462,-0.93377 19.330882,-3.86492 22.695942,-9.98363 2.03725,-3.70436 2.20484,-10.65699 0.34453,-14.29359 -1.90788,-3.7296 -5.95889,-4.92687 -19.814441,-5.85615 -6.471548,-0.43405 -12.646781,-0.95679 -13.72273,-1.16166 l -1.956281,-0.3725 0.383513,-41.87418 c 0.389834,-42.565185 0.733549,-47.165963 3.599892,-48.186288 0.668952,-0.238123 9.171046,1.678758 18.893537,4.259742 26.39971,7.008204 35.09692,9.110523 44.74212,10.81523 19.14794,3.384221 25.13693,3.597138 101.18091,3.597138 94.09346,0 90.08627,0.382557 142.99964,-13.651889 11.32078,-3.002652 21.13447,-5.263149 21.80822,-5.023319 2.87603,1.023763 3.21852,5.597449 3.60861,48.189386 l 0.3835,41.87418 -1.95627,0.3725 c -1.07596,0.20487 -7.25118,0.72761 -13.72274,1.16166 -13.85556,0.92928 -17.90657,2.12655 -19.81444,5.85615 -1.86031,3.6366 -1.69272,10.58923 0.34453,14.29359 3.37036,6.12835 10.02667,9.04979 22.75711,9.98803 12.02738,0.88642 11.83457,0.60842 11.7174,16.89454 -0.13188,18.32861 -3.83283,39.82607 -12.3352,71.65054 -12.98541,48.60452 -26.71637,76.60282 -51.68374,105.38641 -8.50429,9.80415 -24.6117,24.74012 -34.98715,32.44263 -15.60347,11.58369 -42.82117,26.18686 -58.94934,31.62821 -5.66074,1.90984 -11.98452,2.03851 -17.24863,0.35097 z m 21.8094,-12.55493 c 12.67808,-4.94492 34.01131,-17.07163 47.39412,-26.94082 8.62449,-6.36016 26.18586,-22.51558 32.93594,-30.29915 17.96444,-20.71487 34.03771,-47.99808 42.31139,-71.82047 10.23092,-29.45794 18.19873,-69.7359 18.29931,-92.50467 0.068,-15.40857 -0.0829,-15.66063 -9.89758,-16.53029 -7.72798,-0.68475 -12.63246,-2.85917 -17.63182,-7.8171 -10.64856,-10.56033 -10.32649,-22.73011 0.87522,-33.07078 5.95092,-5.4935 11.25385,-7.69273 21.09764,-8.74963 4.4606,-0.47892 8.10248,-1.21839 8.09306,-1.64326 -0.28481,-12.84936 -2.59339,-53.121995 -3.42559,-59.758456 l -0.51895,-4.138467 -3.43214,0.492252 c -1.88768,0.270738 -10.36491,2.040327 -18.83829,3.932418 -8.47338,1.892084 -19.7157,4.118606 -24.98294,4.947831 -49.4399,7.783307 -128.19389,9.08877 -186.95568,3.099068 -20.38094,-2.077468 -30.77573,-3.816303 -53.57454,-8.961909 -16.03586,-3.61924 -19.556392,-4.197633 -20.147705,-3.310101 -1.49119,2.238187 -2.059343,11.926085 -2.059343,35.114874 0,29.77515 -0.287054,28.93493 10.253408,30.01252 11.46391,1.172 25.19612,13.72515 26.50344,24.22784 0.98196,7.88881 -5.80612,17.75761 -15.51659,22.55869 -4.13316,2.04353 -6.40793,2.61771 -11.70508,2.95451 -9.085211,0.57765 -9.584586,1.16924 -9.371523,11.10219 0.387302,18.05649 5.52262,50.26539 11.466533,71.91854 16.19333,58.99087 46.49552,103.6302 91.03275,134.1039 13.50144,9.23808 33.28313,19.57197 43.40204,22.67307 7.13956,2.18803 16.21986,1.59519 24.39292,-1.5926 z m -24.79009,-10.76586 c -13.37402,-4.31887 -34.26377,-16.41553 -49.89987,-28.8956 -31.87163,-25.43859 -56.6002,-63.62132 -70.27025,-108.50247 -6.49966,-21.33952 -12.68064,-52.36995 -12.82122,-64.36648 -0.11497,-9.81144 1.27685,-12.57994 7.98604,-15.88513 12.14873,-5.9849 25.1248,-19.50934 27.26885,-28.42123 3.44587,-14.32305 -11.87539,-35.76076 -28.43207,-39.78251 -8.48621,-2.06136 -8.62389,-2.40115 -8.92625,-22.02944 -0.23689,-15.378397 -0.14906,-16.536282 1.38754,-18.292521 1.47972,-1.691227 2.23878,-1.867758 7.74778,-1.801864 3.79526,0.04542 13.98894,1.569341 26.92647,4.025497 21.74752,4.128703 34.59002,5.736615 56.21161,7.037829 64.76148,3.897419 147.35193,-1.285865 189.18798,-11.873215 8.50665,-2.152764 9.62443,-1.789303 10.72206,3.486362 0.91814,4.41299 0.92702,25.581282 0.0126,29.972142 -1.08134,5.19228 -3.19277,7.09869 -12.62703,11.40095 -4.82419,2.19995 -10.51386,5.50211 -12.83137,7.44705 -12.24148,10.2735 -15.43172,26.33192 -7.93408,39.93711 3.93734,7.1447 17.13925,17.62413 25.42214,20.17962 4.57181,1.41053 4.79459,1.66752 5.45661,6.29459 2.89172,20.21126 -17.23599,93.42907 -34.01919,123.75033 -14.1873,25.63139 -44.30177,56.90011 -70.38735,73.08519 -8.9544,5.55586 -26.01459,13.50075 -31.37775,14.61255 -6.34018,1.31434 -11.67498,0.92316 -18.80322,-1.37876 z m 86.67355,-98.64916 c 16.1267,-4.1092 29.58926,-14.38176 36.31155,-27.70741 2.57589,-5.1062 4.87158,-13.66644 4.89584,-18.25584 0.0405,-7.65589 -7.36362,-23.51901 -13.80746,-29.58218 -12.59047,-11.84667 -36.91101,-14.07903 -51.77388,-4.75229 -8.58229,5.38557 -14.24747,15.98788 -13.26434,24.82411 2.03985,18.33398 26.08381,27.52127 35.59935,13.60265 2.76899,-4.05026 3.0991,-6.75617 1.0771,-8.82877 -1.12052,-1.14856 -2.64778,-1.4127 -8.16848,-1.4127 -7.85802,0 -9.88447,-0.91533 -9.88447,-4.46475 0,-6.72593 11.45972,-13.38236 20.65585,-11.99803 6.73976,1.01456 14.95816,8.50315 17.06907,15.55331 0.46781,1.5624 0.85264,5.17415 0.85519,8.02612 0.0102,11.41722 -5.70848,18.66081 -19.88686,25.18964 -6.88855,3.17202 -8.47223,3.60603 -12.92488,3.54214 -6.37447,-0.0915 -16.81197,-2.74479 -23.36599,-5.93989 -16.21287,-7.9038 -25.42532,-25.57752 -21.92451,-42.06127 2.26379,-10.65914 8.51339,-20.40539 20.68718,-32.26161 9.2182,-8.97775 13.66123,-14.33925 16.4511,-19.85187 3.72241,-7.35525 4.66088,-12.19791 4.68689,-24.18502 0.02,-9.2301 -0.25071,-11.55698 -1.8474,-15.87811 -2.56295,-6.93613 -10.47486,-17.97724 -16.69123,-23.29269 -20.51972,-17.54585 -55.61374,-17.32587 -74.74079,0.4685 -6.68513,6.21934 -9.79117,11.53242 -11.71584,20.04073 -2.18984,9.68051 0.80482,20.79478 8.16445,30.30126 5.77394,7.45823 18.4023,12.48028 29.43616,11.70618 21.93258,-1.53872 34.25239,-22.83471 20.29339,-35.07912 -4.71528,-4.1361 -10.16136,-5.20933 -14.89993,-2.93625 -5.12181,2.45692 -5.34318,5.59579 -0.67654,9.59299 3.29026,2.81825 3.41824,3.09 2.463,5.22928 -2.84025,6.36075 -14.476,7.20613 -19.92638,1.44771 -3.40374,-3.59609 -4.56982,-7.35821 -4.16938,-13.45164 0.41413,-6.30181 2.34933,-10.21422 7.36137,-14.88253 5.20512,-4.84814 11.17322,-6.87005 20.27844,-6.87005 15.12505,0 27.34266,7.18851 33.5319,19.72926 3.20293,6.48984 3.76769,17.95791 1.26131,25.61246 -4.49283,13.72124 -17.9516,25.20838 -34.2777,29.25623 -7.10509,1.76162 -20.28839,1.78582 -27.25066,0.0501 -17.13055,-4.27088 -40.96784,-4.70867 -52.67408,-0.96742 -8.27834,2.64573 -20.26901,11.11883 -27.76921,19.62288 -8.65855,9.81745 -11.88527,19.5195 -11.10372,33.38653 0.75253,13.35199 4.55092,21.99606 13.24088,30.13253 10.02523,9.38669 21.99961,14.06373 36.02094,14.06934 13.99453,0.005 24.66591,-3.99348 32.9237,-12.33806 13.15177,-13.29001 12.88935,-32.01124 -0.60911,-43.4553 -5.54844,-4.70398 -11.0192,-6.54288 -19.43199,-6.5317 -10.88318,0.0145 -18.62664,4.77643 -20.79784,12.78996 -1.91419,7.06491 2.18798,13.8307 8.3857,13.8307 4.01114,0 5.77528,-1.63207 5.77528,-5.34295 0,-6.08732 6.61505,-7.21521 12.15836,-2.07305 4.80737,4.45947 4.59457,10.97637 -0.58651,17.96185 -6.2293,8.39877 -22.27084,10.03056 -32.80735,3.33726 -4.29589,-2.72896 -8.28102,-7.37767 -11.08925,-12.9358 -1.98114,-3.92112 -2.23499,-5.34693 -2.23499,-12.5531 0,-7.68626 0.15513,-8.4234 2.84493,-13.51875 10.09816,-19.12913 37.39703,-27.34188 59.47484,-17.89277 13.91162,5.95404 23.80617,18.95371 31.2722,41.08606 4.07125,12.06885 7.53648,17.3364 16.53005,25.12758 9.67207,8.37898 20.91357,14.03215 33.11351,16.65228 6.28144,1.34903 20.54755,0.89809 27.48124,-0.86868 z"
     id="path3385"
     inkscape:connector-curvature="0" />
</svg>
