<?xml version="1.0" encoding="UTF-8" standalone="no"?>
<!-- Created with Inkscape (http://www.inkscape.org/) -->

<svg
   xmlns:dc="http://purl.org/dc/elements/1.1/"
   xmlns:cc="http://creativecommons.org/ns#"
   xmlns:rdf="http://www.w3.org/1999/02/22-rdf-syntax-ns#"
   xmlns:svg="http://www.w3.org/2000/svg"
   xmlns="http://www.w3.org/2000/svg"
   xmlns:sodipodi="http://sodipodi.sourceforge.net/DTD/sodipodi-0.dtd"
   xmlns:inkscape="http://www.inkscape.org/namespaces/inkscape"
   id="svg3338"
   version="1.1"
   inkscape:version="0.91 r13725"
   width="100"
   height="100"
   viewBox="0 0 100 100"
   sodipodi:docname="vida.svg">
  <metadata
     id="metadata3344">
    <rdf:RDF>
      <cc:Work
         rdf:about="">
        <dc:format>image/svg+xml</dc:format>
        <dc:type
           rdf:resource="http://purl.org/dc/dcmitype/StillImage" />
        <dc:title />
      </cc:Work>
    </rdf:RDF>
  </metadata>
  <defs
     id="defs3342" />
  <sodipodi:namedview
     pagecolor="#ffffff"
     bordercolor="#666666"
     borderopacity="1"
     objecttolerance="10"
     gridtolerance="10"
     guidetolerance="10"
     inkscape:pageopacity="0"
     inkscape:pageshadow="2"
     inkscape:window-width="1364"
     inkscape:window-height="714"
     id="namedview3340"
     showgrid="false"
     inkscape:zoom="2.36"
     inkscape:cx="32.20339"
     inkscape:cy="71.18644"
     inkscape:window-x="0"
     inkscape:window-y="24"
     inkscape:window-maximized="1"
     inkscape:current-layer="svg3338" />
  <path
     style="fill:#000000"
     d="m 55.483319,75.875878 c -1.252612,-2.410651 -2.583114,-4.383002 -2.956665,-4.383002 -0.37355,0 -1.972018,1.268383 -3.552146,2.818628 -4.877463,4.785213 -5.272722,4.805106 -10.17963,0.512325 C 36.394296,72.723691 30.997424,68.288255 26.801835,64.967307 12.313598,53.499381 8.5864451,48.059743 8.5864451,38.382642 c 0,-5.259528 0.2966552,-6.416121 2.5138779,-9.801076 6.288829,-9.600927 20.601826,-11.011537 29.741696,-2.931178 l 2.243494,1.983425 3.310241,-2.474585 c 8.333203,-6.229517 18.046095,-6.517161 25.448775,-0.753657 4.513224,3.513861 6.312565,7.660366 6.334957,14.5986 l 0.01834,5.674477 3.126258,0.79769 c 4.495984,1.147188 6.842037,2.956551 8.617009,6.645772 2.088798,4.341492 1.989216,6.512864 -0.516341,11.258611 -2.649299,5.018005 -5.779751,7.085791 -18.409191,12.160004 -13.763589,5.529888 -12.843269,5.510028 -15.532209,0.335153 z m -9.081012,-7.405799 2.801769,-2.193592 -2.350663,-4.276917 c -1.922249,-3.497443 -2.356907,-5.305587 -2.384935,-9.921188 -0.03827,-6.297786 1.185769,-8.636223 6.209766,-11.863577 5.215866,-3.350608 13.449746,-1.671951 16.969529,3.45961 0.988073,1.440533 2.060229,2.623532 2.382559,2.628888 0.781581,0.013 2.321292,-5.333673 2.327128,-8.080946 0.01651,-7.774128 -8.261558,-13.629787 -16.124756,-11.406166 -1.801075,0.509322 -5.245136,2.625834 -7.65348,4.70336 -2.408336,2.077525 -4.852678,3.777317 -5.431861,3.777317 -0.579183,0 -3.000799,-1.738685 -5.381374,-3.863744 -4.827134,-4.309022 -8.831987,-5.751436 -13.317601,-4.796557 -6.546467,1.393584 -9.609427,5.320827 -9.609427,12.320943 0,5.814429 2.577779,9.73186 11.448692,17.398482 4.375061,3.781113 9.872674,8.549048 12.216934,10.595409 2.344251,2.046362 4.449857,3.718771 4.679116,3.716465 0.229259,-0.0023 1.677633,-0.99131 3.218604,-2.197787 z"
     id="path3348"
     inkscape:connector-curvature="0" />
</svg>
