<?xml version="1.0" encoding="UTF-8" standalone="no"?>
<!-- Created with Inkscape (http://www.inkscape.org/) -->

<svg
   xmlns:dc="http://purl.org/dc/elements/1.1/"
   xmlns:cc="http://creativecommons.org/ns#"
   xmlns:rdf="http://www.w3.org/1999/02/22-rdf-syntax-ns#"
   xmlns:svg="http://www.w3.org/2000/svg"
   xmlns="http://www.w3.org/2000/svg"
   xmlns:sodipodi="http://sodipodi.sourceforge.net/DTD/sodipodi-0.dtd"
   xmlns:inkscape="http://www.inkscape.org/namespaces/inkscape"
   id="svg2"
   version="1.1"
   inkscape:version="0.91 r13725"
   width="96.300003"
   height="36.299999"
   viewBox="0 0 96.300003 36.299999"
   sodipodi:docname="back.jpg.svg">
  <metadata
     id="metadata8">
    <rdf:RDF>
      <cc:Work
         rdf:about="">
        <dc:format>image/svg+xml</dc:format>
        <dc:type
           rdf:resource="http://purl.org/dc/dcmitype/StillImage" />
        <dc:title></dc:title>
      </cc:Work>
    </rdf:RDF>
  </metadata>
  <defs
     id="defs6" />
  <sodipodi:namedview
     pagecolor="#ffffff"
     bordercolor="#666666"
     borderopacity="1"
     objecttolerance="10"
     gridtolerance="10"
     guidetolerance="10"
     inkscape:pageopacity="0"
     inkscape:pageshadow="2"
     inkscape:window-width="1364"
     inkscape:window-height="714"
     id="namedview4"
     showgrid="false"
     inkscape:zoom="4.5794391"
     inkscape:cx="48.150002"
     inkscape:cy="18.15"
     inkscape:window-x="0"
     inkscape:window-y="24"
     inkscape:window-maximized="1"
     inkscape:current-layer="svg2" />
  <path
     style="fill:#000000"
     d="m 33.338428,32.140819 c 0,-0.160125 -1.033626,-1.173072 -2.296947,-2.250995 l -2.296944,-1.959862 -1.320614,0.773931 -1.320613,0.773931 -1.557441,-1.200262 C 18.424085,23.559733 11.673936,20.138449 5.4752663,18.611707 c -1.551329,-0.382094 -1.35768,-0.708563 0.713161,-1.202304 1.700869,-0.40553 1.667776,-0.393248 5.6018387,-2.079011 3.703123,-1.586805 7.380527,-3.690555 11.29887,-6.4637976 l 3.100708,-2.194555 0.949292,0.578835 c 0.52211,0.318359 1.164664,0.57934 1.427896,0.579957 0.263232,6.3e-4 1.545732,-0.930479 2.850001,-2.069101 1.304268,-1.138623 2.467173,-2.011538 2.584233,-1.939812 0.11706,0.07173 0.629304,0.911784 1.13832,1.866794 2.597694,4.8737706 7.145676,8.4343696 13.948843,10.9204946 l 2.1,0.767417 19.200002,0.198039 c 10.56,0.108922 19.74,0.308346 20.4,0.443165 0.66,0.134818 1.1325,0.264604 1.05,0.288413 -0.0825,0.02381 -9.45642,0.172171 -20.83093,0.329694 -13.829983,0.191527 -21.035086,0.399173 -21.750004,0.626818 -2.51176,0.799798 -6.278515,2.567003 -7.669069,3.598006 -2.763198,2.048728 -5.458218,5.075443 -6.585654,7.396192 -0.932244,1.918968 -1.664346,2.747628 -1.664346,1.883868 z m 1.669464,-4.206323 c 1.829577,-3.481692 6.306408,-7.183518 10.180536,-8.41814 0.66,-0.210331 1.029222,-0.439793 0.820491,-0.509916 -1.13085,-0.379905 -8.917254,3.151984 -13.37763,6.068052 l -2.657137,1.737162 1.757137,1.59637 c 0.966426,0.878003 1.851027,1.60257 1.96578,1.610148 0.114753,0.0076 0.704625,-0.930076 1.310823,-2.083676 z m -7.069464,-0.555334 c 0,-0.174605 -5.943364,-3.817704 -7.5,-4.59727 -1.336555,-0.669348 -5.493493,-2.356449 -5.583762,-2.266179 -0.05798,0.05798 0.938391,0.6876 2.214168,1.399146 2.409974,1.344128 5.193992,3.397882 7.649696,5.643137 l 1.430103,1.307545 0.894898,-0.637223 c 0.492193,-0.350473 0.894897,-0.732593 0.894897,-0.849156 z m 3.6,-2.919226 c 1.2375,-0.912856 3.980433,-2.530094 6.095406,-3.593862 l 3.845406,-1.934123 -1.465956,0 c -2.687742,0 -6.218016,1.378718 -9.232575,3.605702 -1.705887,1.260213 -2.672187,2.523056 -2.424493,3.168535 0.271476,0.707453 0.830482,0.488529 3.182212,-1.246252 z M 28.393729,23.63862 c 1.14315,-1.586834 4.144698,-3.619427 6.377694,-4.318859 l 1.717005,-0.53781 -3.3,-0.186833 c -1.815,-0.102758 -5.055,-0.223856 -7.2,-0.269106 -3.35878,-0.07086 -3.650206,-0.113266 -2.1,-0.305607 0.99,-0.122833 3.569908,-0.237985 5.733129,-0.255893 2.163219,-0.01791 4.562958,-0.118888 5.332749,-0.2244 l 1.399623,-0.191839 -2.932752,-1.412488 c -2.266569,-1.091638 -3.294216,-1.797499 -4.524048,-3.107436 -1.806928,-1.924622 -1.402192,-1.942958 -4.990741,0.226096 -2.245073,1.357006 -7.218958,3.288484 -10.613503,4.121477 -1.432452,0.351511 -2.718654,0.741365 -2.858228,0.866341 -0.139573,0.124976 0.332927,0.324689 1.05,0.443808 3.807492,0.632492 10.069962,3.047264 13.914072,5.365185 0.984334,0.593534 1.857199,1.071251 1.939699,1.061593 0.0825,-0.0097 0.557385,-0.583061 1.055301,-1.274229 z m 10.736397,-7.676546 c -1.983954,-0.865096 -4.729893,-2.406275 -6.709866,-3.765966 -1.843359,-1.265875 -3.538373,-2.2299046 -3.766698,-2.142289 -0.785037,0.301247 -0.411534,1.031629 1.309866,2.561427 2.7861,2.475991 8.088492,4.750008 11.175,4.792581 1.312845,0.01811 1.257573,-0.02168 -2.008302,-1.445753 z m 4.510461,-0.309962 c -3.82266,-1.916197 -7.080771,-4.83852 -8.539341,-7.6592506 -0.557049,-1.077279 -1.147818,-1.952989 -1.312818,-1.94602 -0.165,0.007 -1.091658,0.731882 -2.059242,1.610919 l -1.75924,1.598251 1.30924,0.8861156 c 4.329372,2.930192 8.789643,5.206178 12.559242,6.408725 2.901663,0.925664 2.834679,0.621384 -0.197841,-0.89874 z M 17.822658,14.416473 c 2.416881,-1.028475 8.045811,-4.157513 9.350366,-5.1977286 l 0.855255,-0.681956 -0.961145,-0.684396 -0.961145,-0.684395 -1.858781,1.772402 c -1.616578,1.5414536 -4.250307,3.4279326 -8.008781,5.7365016 -1.463736,0.899072 -0.937119,0.812503 1.584231,-0.260428 z"
     id="path3369"
     inkscape:connector-curvature="0" />
</svg>
