<?xml version="1.0" encoding="UTF-8" standalone="no"?>
<!-- Created with Inkscape (http://www.inkscape.org/) -->

<svg
   xmlns:dc="http://purl.org/dc/elements/1.1/"
   xmlns:cc="http://creativecommons.org/ns#"
   xmlns:rdf="http://www.w3.org/1999/02/22-rdf-syntax-ns#"
   xmlns:svg="http://www.w3.org/2000/svg"
   xmlns="http://www.w3.org/2000/svg"
   xmlns:sodipodi="http://sodipodi.sourceforge.net/DTD/sodipodi-0.dtd"
   xmlns:inkscape="http://www.inkscape.org/namespaces/inkscape"
   id="svg2"
   version="1.1"
   inkscape:version="0.91 r13725"
   width="100"
   height="100"
   viewBox="0 0 100 100"
   sodipodi:docname="existencia.svg">
  <metadata
     id="metadata8">
    <rdf:RDF>
      <cc:Work
         rdf:about="">
        <dc:format>image/svg+xml</dc:format>
        <dc:type
           rdf:resource="http://purl.org/dc/dcmitype/StillImage" />
        <dc:title />
      </cc:Work>
    </rdf:RDF>
  </metadata>
  <defs
     id="defs6" />
  <sodipodi:namedview
     pagecolor="#ffffff"
     bordercolor="#666666"
     borderopacity="1"
     objecttolerance="10"
     gridtolerance="10"
     guidetolerance="10"
     inkscape:pageopacity="0"
     inkscape:pageshadow="2"
     inkscape:window-width="1364"
     inkscape:window-height="714"
     id="namedview4"
     showgrid="false"
     inkscape:zoom="2.36"
     inkscape:cx="50.211864"
     inkscape:cy="37.288136"
     inkscape:window-x="0"
     inkscape:window-y="24"
     inkscape:window-maximized="1"
     inkscape:current-layer="svg2" />
  <path
     style="fill:#000000"
     d="M 66.408993,85.323065 C 59.276734,84.174672 51.440563,77.597657 49.869385,71.441123 47.289064,61.330291 43.044668,55.67994 36.772348,54.00568 22.718495,50.254307 12.211427,65.85985 22.423594,75.317057 c 2.955124,2.736659 8.5105,2.618589 10.985281,-0.233474 2.279642,-2.627175 2.359375,-6.10272 0.174803,-7.619536 -2.069054,-1.436609 -3.894633,-0.772537 -3.602753,1.310534 0.146811,1.047754 -0.256062,1.69995 -1.160069,1.87799 -3.87479,0.763125 -5.086088,-5.47291 -1.592247,-8.197245 2.952365,-2.302118 7.966292,-2.141303 10.954659,0.351356 6.312546,5.265426 4.478932,15.686495 -3.427681,19.480707 -7.53153,3.614218 -16.875808,0.542044 -21.110439,-6.940608 -2.583224,-4.564592 -2.688386,-12.574924 -0.225787,-17.198627 2.01285,-3.779269 6.903397,-8.284044 10.701161,-9.85704 3.655111,-1.513911 11.667859,-1.483425 17.040439,0.06484 12.615429,3.635479 24.302667,-6.673697 21.067547,-18.583438 -2.292923,-8.44117 -13.580393,-11.711975 -18.878394,-5.470457 -3.832533,4.515063 -1.756021,11.816703 3.19315,11.228067 2.70231,-0.321403 4.191893,-2.707901 2.341866,-3.751962 -1.780987,-1.005097 -1.712078,-2.728687 0.148556,-3.7158 3.335049,-1.769333 7.753882,2.911066 6.695386,7.091724 -1.26114,4.981043 -6.881802,8.096703 -11.987749,6.645082 -4.031076,-1.146035 -5.911664,-2.724596 -7.763484,-6.516651 -4.567374,-9.352817 1.927226,-19.780257 12.93623,-20.76983 7.978881,-0.717202 14.334805,2.6871 18.23584,9.767324 1.927086,3.497574 2.276978,4.971059 2.252483,9.485813 -0.03682,6.789335 -1.416621,9.946787 -6.784623,15.525591 -4.983102,5.17879 -7.343993,9.88375 -7.343993,14.635639 0,7.278691 4.644386,12.902917 12.055331,14.598679 3.55092,0.812518 4.24126,0.734893 7.539298,-0.847763 2.030881,-0.974575 4.274798,-2.789655 5.092873,-4.119564 4.358474,-7.085393 -1.748465,-16.551715 -8.458772,-13.111884 -4.201036,2.153536 -3.963474,6.232431 0.316639,5.436467 3.06103,-0.569254 4.089569,1.159462 2.300378,3.866349 -3.740208,5.658592 -12.565156,0.434576 -11.658799,-6.90154 0.998945,-8.085512 10.024281,-11.993542 18.227798,-7.892755 2.690942,1.34515 3.896668,2.61785 5.555173,5.863736 1.165048,2.28013 2.118269,5.332745 2.118269,6.783589 0,11.173293 -10.413003,19.578792 -21.952971,17.720695 z"
     id="path3388"
     inkscape:connector-curvature="0" />
</svg>
