<?xml version="1.0" encoding="UTF-8" standalone="no"?>
<!-- Created with Inkscape (http://www.inkscape.org/) -->

<svg
   xmlns:dc="http://purl.org/dc/elements/1.1/"
   xmlns:cc="http://creativecommons.org/ns#"
   xmlns:rdf="http://www.w3.org/1999/02/22-rdf-syntax-ns#"
   xmlns:svg="http://www.w3.org/2000/svg"
   xmlns="http://www.w3.org/2000/svg"
   xmlns:sodipodi="http://sodipodi.sourceforge.net/DTD/sodipodi-0.dtd"
   xmlns:inkscape="http://www.inkscape.org/namespaces/inkscape"
   id="svg3338"
   version="1.1"
   inkscape:version="0.91 r13725"
   width="96.300003"
   height="36.299999"
   viewBox="0 0 96.300003 36.299999"
   sodipodi:docname="next.jpg.svg">
  <metadata
     id="metadata3344">
    <rdf:RDF>
      <cc:Work
         rdf:about="">
        <dc:format>image/svg+xml</dc:format>
        <dc:type
           rdf:resource="http://purl.org/dc/dcmitype/StillImage" />
        <dc:title></dc:title>
      </cc:Work>
    </rdf:RDF>
  </metadata>
  <defs
     id="defs3342" />
  <sodipodi:namedview
     pagecolor="#ffffff"
     bordercolor="#666666"
     borderopacity="1"
     objecttolerance="10"
     gridtolerance="10"
     guidetolerance="10"
     inkscape:pageopacity="0"
     inkscape:pageshadow="2"
     inkscape:window-width="1364"
     inkscape:window-height="714"
     id="namedview3340"
     showgrid="false"
     inkscape:zoom="4.5794391"
     inkscape:cx="48.150002"
     inkscape:cy="18.15"
     inkscape:window-x="0"
     inkscape:window-y="24"
     inkscape:window-maximized="1"
     inkscape:current-layer="svg3338" />
  <path
     style="fill:#000000"
     d="m 60.766149,30.134192 c -0.80952,-1.681817 -1.654563,-2.810533 -3.379752,-4.514303 -3.00546,-2.968148 -4.09758,-3.719113 -7.700346,-5.294926 l -3.000001,-1.31217 -4.95,-0.214902 c -2.7225,-0.118196 -9.6075,-0.228262 -15.3,-0.244591 C 13.790663,18.51703 3.2140861,18.188061 5.1360491,17.890801 5.8785491,17.775962 15.12605,17.581153 25.68605,17.45789 l 19.2,-0.224114 3.267457,-1.309481 c 5.560083,-2.228285 9.70116,-5.494055 11.882544,-9.3709079 1.895625,-3.36899 1.60518,-3.307423 4.321395,-0.916018 1.304268,1.148299 2.570835,2.087817 2.814591,2.087817 0.243756,0 0.88113,-0.27066 1.416387,-0.601466 l 0.973194,-0.601467 2.851575,2.065377 c 3.581634,2.5941519 7.852897,5.0430699 11.584252,6.6417999 1.588734,0.680706 3.158607,1.353532 3.488607,1.495168 0.33,0.141636 1.309167,0.415775 2.175924,0.609199 1.844129,0.41153 2.237189,0.801421 1.061349,1.052782 -5.707674,1.220128 -13.545172,5.138149 -19.359241,9.677825 l -1.721967,1.344528 -1.225041,-0.810694 -1.225041,-0.810693 -0.982833,0.749644 c -0.540558,0.412304 -1.743516,1.444865 -2.673243,2.294582 l -1.690407,1.544937 -1.079403,-2.242516 z m 3.277041,-1.832933 1.757136,-1.59637 -2.657136,-1.739572 c -4.486194,-2.937015 -12.852486,-6.694782 -13.488732,-6.058538 -0.08723,0.08723 0.356688,0.322099 0.986493,0.52192 3.811284,1.209226 8.307165,4.938479 10.125636,8.399032 0.606198,1.1536 1.19607,2.091254 1.310823,2.083676 0.114753,-0.0076 0.999354,-0.732145 1.96578,-1.610148 z m 6.946218,-0.781038 c 1.134585,-1.256093 5.408829,-4.418045 7.717941,-5.709491 1.274839,-0.712996 2.27497,-1.339278 2.222509,-1.391738 -0.26715,-0.26715 -6.323734,2.585871 -9.406,4.4308 -1.935117,1.158289 -3.590262,2.1787 -3.678099,2.267578 -0.08784,0.08888 0.236628,0.478321 0.721038,0.865428 0.95667,0.764502 1.388754,0.681999 2.422611,-0.462577 z M 67.418262,25.599423 C 68.199276,23.564136 60.154686,18.825186 55.91868,18.825186 l -1.623441,0 3.845406,1.934123 c 2.114973,1.063768 4.857906,2.681006 6.095406,3.593862 2.35173,1.734781 2.910735,1.953705 3.182211,1.246252 z m 2.957487,-1.854932 c 3.84411,-2.317921 10.106581,-4.732693 13.914073,-5.365185 0.717072,-0.119119 1.189572,-0.316043 1.05,-0.43761 -0.139575,-0.121566 -1.46877,-0.531182 -2.95377,-0.910256 -3.582253,-0.914437 -8.314036,-2.751625 -10.517962,-4.08376 -3.586197,-2.167632 -3.184956,-2.14783 -4.983666,-0.24596 -1.193328,1.261768 -2.306376,2.029361 -4.51095,3.110891 L 59.446749,17.248417 60.5664,17.4335 c 0.615807,0.101796 2.942151,0.202348 5.169651,0.22345 2.2275,0.0211 4.9275,0.137002 6,0.257556 1.650294,0.1855 1.281426,0.23138 -2.4,0.298513 -2.3925,0.04363 -5.6325,0.165465 -7.2,0.270747 l -2.85,0.19142 1.717005,0.53781 c 2.232996,0.699432 5.234544,2.732025 6.377694,4.318859 0.497916,0.691168 0.972801,1.264571 1.055301,1.274229 0.0825,0.0097 0.955365,-0.468059 1.939698,-1.061593 z M 57.393006,16.860428 c 2.795922,-0.724496 6.52197,-2.645968 8.418045,-4.341072 1.711716,-1.530285 2.094195,-2.271328 1.324713,-2.5666049 -0.220158,-0.08448 -2.008908,0.9258689 -3.975,2.2452249 -1.987665,1.333832 -4.973205,3.002306 -6.724713,3.758117 -2.867766,1.2375 -3.046362,1.359728 -1.993302,1.364191 0.636183,0.0027 1.963797,-0.204239 2.950257,-0.459856 z m -5.120247,-0.560642 c 1.21731,-0.398971 2.888292,-1.015838 3.713292,-1.370818 1.943043,-0.836048 7.839159,-4.273536 9,-5.2470789 0.869745,-0.729415 0.879942,-0.766753 0.303333,-1.110758 -0.328164,-0.195784 -1.227972,-0.946485 -1.999569,-1.668223 l -1.402902,-1.312252 -1.121958,2.135091 c -1.590894,3.0274739 -4.690152,5.8237309 -8.643945,7.7988609 -3.295734,1.646395 -3.248148,1.889484 0.151749,0.775178 z M 80.331442,14.912807 C 77.433321,13.445396 73.778688,10.931628 71.654457,8.9445121 l -2.00145,-1.872257 -0.952377,0.678154 -0.95238,0.678154 0.718899,0.58241 c 1.48362,1.2019379 6.534015,3.9965509 9.718902,5.3779089 3.694627,1.602443 4.816582,1.876436 2.145391,0.523925 z"
     id="path3348"
     inkscape:connector-curvature="0" />
</svg>
